<?xml version="1.0" encoding="UTF-8" standalone="no"?>
<!-- Created with Inkscape (http://www.inkscape.org/) -->

<svg
   width="16"
   height="16"
   viewBox="0 0 16 16"
   version="1.1"
   id="svg1"
   inkscape:version="1.3.1 (9b9bdc1480, 2023-11-25, custom)"
   sodipodi:docname="logo_16_branco"
   xmlns:inkscape="http://www.inkscape.org/namespaces/inkscape"
   xmlns:sodipodi="http://sodipodi.sourceforge.net/DTD/sodipodi-0.dtd"
   xmlns="http://www.w3.org/2000/svg"
   xmlns:svg="http://www.w3.org/2000/svg">
  <sodipodi:namedview
     id="namedview1"
     pagecolor="#acacac"
     bordercolor="#000000"
     borderopacity="0.25"
     inkscape:showpageshadow="2"
     inkscape:pageopacity="0.0"
     inkscape:pagecheckerboard="0"
     inkscape:deskcolor="#d1d1d1"
     inkscape:document-units="px"
     inkscape:zoom="17.125242"
     inkscape:cx="-2.9488634"
     inkscape:cy="9.5473103"
     inkscape:window-width="1854"
     inkscape:window-height="1003"
     inkscape:window-x="0"
     inkscape:window-y="0"
     inkscape:window-maximized="1"
     inkscape:current-layer="layer1"
     showgrid="false" />
  <defs
     id="defs1" />
  <g
     inkscape:label="Camada 1"
     inkscape:groupmode="layer"
     id="layer1">
    <g
       id="g2"
       transform="matrix(0.03047969,0,0,0.03047969,0.25260058,-0.03313198)"
       style="fill:#ffffff;fill-opacity:1;stroke:none;stroke-opacity:1">
      <path
         id="path1"
         style="fill:#ffffff;fill-opacity:1;stroke:none;stroke-width:1.73034;stroke-opacity:1"
         d="m 360.63729,125.80798 a 37.290435,37.290435 0 0 0 -37.29088,37.29089 37.290435,37.290435 0 0 0 0.37101,5.17148 l -95.43138,42.14541 a 69.454153,69.454153 0 0 0 -48.0439,-19.3266 69.454153,69.454153 0 0 0 -69.45379,69.45379 69.454153,69.454153 0 0 0 69.45379,69.45381 69.454153,69.454153 0 0 0 44.97976,-16.5869 l 66.61647,44.06052 a 48.368733,48.368733 0 0 0 -2.47235,15.00225 48.368733,48.368733 0 0 0 48.36831,48.36982 48.368733,48.368733 0 0 0 48.36983,-48.36982 48.368733,48.368733 0 0 0 -31.93311,-45.48593 l 13.35453,-127.32095 a 37.290435,37.290435 0 0 0 30.40257,-36.56688 37.290435,37.290435 0 0 0 -37.29086,-37.29089 z m -26.67452,63.21889 a 37.290435,37.290435 0 0 0 10.33694,7.53118 l -12.98203,128.0059 a 48.368733,48.368733 0 0 0 -25.5405,11.63767 l -61.52757,-49.02919 a 69.454153,69.454153 0 0 0 5.44634,-26.62948 69.454153,69.454153 0 0 0 -3.41111,-21.43393 z" />
      <text
         xml:space="preserve"
         style="font-style:normal;font-variant:normal;font-weight:normal;font-stretch:normal;font-size:474.086px;font-family:'Wind Sans Serif';-inkscape-font-specification:'Wind Sans Serif, Normal';font-variant-ligatures:normal;font-variant-caps:normal;font-variant-numeric:normal;font-variant-east-asian:normal;fill:#ffffff;fill-opacity:1;stroke:none;stroke-width:39.5072;stroke-opacity:1"
         x="370.63651"
         y="419.59409"
         id="text3-2"
         transform="scale(1.008132,0.9919336)"><tspan
           sodipodi:role="line"
           id="tspan3-8"
           x="370.63651"
           y="419.59409"
           style="font-style:normal;font-variant:normal;font-weight:normal;font-stretch:normal;font-size:474.086px;font-family:'Wind Sans Serif';-inkscape-font-specification:'Wind Sans Serif, Normal';font-variant-ligatures:normal;font-variant-caps:normal;font-variant-numeric:normal;font-variant-east-asian:normal;fill:#ffffff;fill-opacity:1;stroke:none;stroke-width:39.5072;stroke-opacity:1">}</tspan></text>
      <text
         xml:space="preserve"
         style="font-style:normal;font-variant:normal;font-weight:normal;font-stretch:normal;font-size:474.086px;font-family:'Wind Sans Serif';-inkscape-font-specification:'Wind Sans Serif, Normal';font-variant-ligatures:normal;font-variant-caps:normal;font-variant-numeric:normal;font-variant-east-asian:normal;fill:#ffffff;fill-opacity:1;stroke:none;stroke-width:39.5072;stroke-opacity:1"
         x="-138.16515"
         y="419.59409"
         id="text3-2-6"
         transform="scale(-1.008132,0.9919336)"><tspan
           sodipodi:role="line"
           id="tspan3-8-1"
           x="-138.16515"
           y="419.59409"
           style="font-style:normal;font-variant:normal;font-weight:normal;font-stretch:normal;font-size:474.086px;font-family:'Wind Sans Serif';-inkscape-font-specification:'Wind Sans Serif, Normal';font-variant-ligatures:normal;font-variant-caps:normal;font-variant-numeric:normal;font-variant-east-asian:normal;fill:#ffffff;fill-opacity:1;stroke:none;stroke-width:39.5072;stroke-opacity:1">}</tspan></text>
    </g>
  </g>
</svg>
